HIERARCHY
ROOT Hips
{
 OFFSET 0.000000 0.000000 0.000000
 CHANNELS 6 Xposition Yposition Zposition Yrotation Xrotation Zrotation
 JOINT Chest
 {
  OFFSET 0.000000 9.585900 0.002600
  CHANNELS 3 Yrotation Xrotation Zrotation
  JOINT Chest2
  {
   OFFSET 0.000000 9.601200 -0.005300
   CHANNELS 3 Yrotation Xrotation Zrotation
   JOINT Chest3
   {
    OFFSET 0.000000 9.561800 0.000000
    CHANNELS 3 Yrotation Xrotation Zrotation
    JOINT Chest4
    {
     OFFSET 0.000000 9.552100 0.000000
     CHANNELS 3 Yrotation Xrotation Zrotation
     JOINT Neck
     {
      OFFSET 0.000000 14.453000 0.000000
      CHANNELS 3 Yrotation Xrotation Zrotation
      JOINT Head
      {
       OFFSET 0.000000 8.936500 -0.011300
       CHANNELS 3 Yrotation Xrotation Zrotation
       End Site
       {
        OFFSET 0.000000 17.073600 -0.006000
       }
      }
     }
     JOINT RightCollar
     {
      OFFSET -2.921100 9.558500 0.000000
      CHANNELS 3 Yrotation Xrotation Zrotation
      JOINT RightShoulder
      {
       OFFSET -13.519700 0.000000 0.000000
       CHANNELS 3 Yrotation Xrotation Zrotation
       JOINT RightElbow
       {
        OFFSET 0.000000 -29.696600 0.000000
        CHANNELS 3 Yrotation Xrotation Zrotation
        JOINT RightWrist
        {
         OFFSET 0.000000 -24.004700 0.000000
         CHANNELS 3 Yrotation Xrotation Zrotation
         End Site
         {
          OFFSET 0.000000 -17.728500 0.000000
         }
        }
       }
      }
     }
     JOINT LeftCollar
     {
      OFFSET 2.921100 9.558500 0.000000
      CHANNELS 3 Yrotation Xrotation Zrotation
      JOINT LeftShoulder
      {
       OFFSET 13.519700 0.000000 0.000000
       CHANNELS 3 Yrotation Xrotation Zrotation
       JOINT LeftElbow
       {
        OFFSET 0.000000 -29.696600 0.000000
        CHANNELS 3 Yrotation Xrotation Zrotation
        JOINT LeftWrist
        {
         OFFSET 0.000000 -24.004700 0.000000
         CHANNELS 3 Yrotation Xrotation Zrotation
         End Site
         {
          OFFSET 0.000000 -17.728500 0.000000
         }
        }
       }
      }
     }
    }
   }
  }
 }
 JOINT RightHip
 {
  OFFSET -7.771700 -0.012900 -0.001300
  CHANNELS 3 Yrotation Xrotation Zrotation
  JOINT RightKnee
  {
   OFFSET 0.000000 -40.869800 0.001200
   CHANNELS 3 Yrotation Xrotation Zrotation
   JOINT RightAnkle
   {
    OFFSET 0.000000 -39.717900 0.002100
    CHANNELS 3 Yrotation Xrotation Zrotation
    JOINT RightToe
    {
     OFFSET 0.000000 -4.965400 11.033500
     CHANNELS 3 Yrotation Xrotation Zrotation
     End Site
     {
      OFFSET 0.000000 -1.423100 5.872300
     }
    }
   }
  }
 }
 JOINT LeftHip
 {
  OFFSET 7.771700 -0.012900 -0.001300
  CHANNELS 3 Yrotation Xrotation Zrotation
  JOINT LeftKnee
  {
   OFFSET 0.000000 -40.869800 0.001200
   CHANNELS 3 Yrotation Xrotation Zrotation
   JOINT LeftAnkle
   {
    OFFSET 0.000000 -39.717900 0.002100
    CHANNELS 3 Yrotation Xrotation Zrotation
    JOINT LeftToe
    {
     OFFSET 0.000000 -4.965400 11.033500
     CHANNELS 3 Yrotation Xrotation Zrotation
     End Site
     {
      OFFSET 0.000000 -1.423100 5.872300
     }
    }
   }
  }
 }
}
MOTION
Frames: 12
Frame Time: 0.008333
0.000000 85.388000 0.000000 0.000000 -5.767877 0.000000 0.000000 11.653817 0.000000 0.000000 -5.885947 0.000000 0.000000 -0.000000 0.000000 0.000000 -0.000000 0.000000 0.000000 12.528835 0.000000 0.000000 0.711642 0.000000 0.000000 -0.000000 0.000000 0.000000 0.000000 -90.000000 0.000000 -2.309062 0.000000 0.000000 2.309062 0.000000 0.000000 -0.000000 0.000000 0.000000 -0.000000 90.000000 0.000000 -2.309062 0.000000 0.000000 2.309062 0.000000 0.000000 8.520406 0.000000 0.000000 1.905762 0.000000 -0.000000 -4.658285 0.000000 0.000000 -0.000000 0.000000 0.000000 8.520406 0.000000 0.000000 1.905762 0.000000 -0.000000 -4.658285 0.000000 0.000000 -0.000000 0.000000
-250.889923 56.668738 155.095939 177.275040 -52.562231 0.726751 0.694304 27.258202 2.719550 -0.025181 4.760688 0.482490 -0.012949 7.501848 0.759380 0.251177 22.192124 2.332464 -3.115918 22.678673 0.020487 -5.586920 6.452958 0.889563 5.285395 1.054451 -3.585527 37.328228 -52.968549 -24.642948 -131.234828 -44.602356 158.532566 -10.797383 -1.733976 -38.658401 -11.322863 -0.799973 -3.541903 -5.583305 -26.589013 -3.007707 -17.991425 -53.661594 -18.151958 3.450694 -8.798511 9.856477 5.108295 -23.623716 -3.880529 -11.261157 60.500432 -14.827225 4.896751 32.411998 1.860756 -1.140496 -16.834725 7.729976 -10.920407 -22.117323 -3.184282 31.861916 61.337934 30.102528 -12.646072 13.262363 -6.867691 0.096525 0.312548 0.036840
-250.890598 56.667834 155.098364 177.274442 -52.558496 0.727868 0.698796 27.247535 2.720416 -0.028003 4.756100 0.480676 -0.006191 7.501683 0.759067 0.250348 22.189371 2.330805 -3.101730 22.711405 0.038641 -5.566085 6.512969 0.915158 5.287907 1.068494 -3.570169 37.355830 -53.047948 -24.658807 -131.372603 -44.629212 158.585557 -10.761203 -1.597957 -38.578450 -11.324371 -0.782221 -3.534700 -5.578707 -26.594119 -3.012192 -17.994426 -53.666829 -18.158268 3.444888 -8.800753 9.856283 5.102845 -23.625994 -3.880661 -11.268768 60.493446 -14.837376 4.900721 32.406070 1.858719 -1.137195 -16.827623 7.729091 -10.921180 -22.121805 -3.183893 31.859998 61.331840 30.100857 -12.649733 13.272233 -6.867098 0.099695 0.308565 0.035940
-250.891226 56.667529 155.100536 177.267393 -52.558653 0.733138 0.705462 27.245628 2.721821 -0.020938 4.748491 0.480251 -0.008452 7.503455 0.757914 0.258131 22.183170 2.330122 -3.068717 22.763470 0.064815 -5.567872 6.551793 0.944604 5.297647 1.080011 -3.555746 37.375930 -53.118667 -24.678467 -131.514751 -44.652036 158.641482 -10.720307 -1.462301 -38.511156 -11.331098 -0.759616 -3.518975 -5.577779 -26.604888 -3.022131 -18.006442 -53.670718 -18.153201 3.442877 -8.804782 9.855982 5.100378 -23.623873 -3.877798 -11.278017 60.485467 -14.853292 4.910878 32.398179 1.863590 -1.134416 -16.817932 7.726721 -10.916622 -22.120785 -3.185802 31.858901 61.329267 30.103996 -12.649666 13.271362 -6.869979 0.101671 0.310430 0.036524
-250.892179 56.668605 155.101663 177.265203 -52.568545 0.735937 0.711994 27.247156 2.720279 -0.012501 4.743807 0.477418 -0.019239 7.513696 0.764143 0.277415 22.169741 2.324440 -3.060864 22.798656 0.087372 -5.552490 6.606371 0.971704 5.283186 1.092909 -3.539317 37.412872 -53.171918 -24.700347 -131.671694 -44.657673 158.709988 -10.680304 -1.323892 -38.451816 -11.343411 -0.738742 -3.504036 -5.583225 -26.611206 -3.026057 -18.023824 -53.677628 -18.144798 3.441523 -8.805918 9.860755 5.096909 -23.609932 -3.877414 -11.293733 60.476887 -14.872873 4.926299 32.391004 1.868959 -1.135779 -16.810251 7.725999 -10.911386 -22.109043 -3.195582 31.857667 61.322922 30.110656 -12.641451 13.273732 -6.868323 0.097773 0.310871 0.033735
-250.892375 56.668986 155.103262 177.266121 -52.571819 0.730684 0.722791 27.246200 2.724631 -0.009334 4.740867 0.479032 -0.018423 7.513219 0.763140 0.277187 22.171888 2.329361 -3.055433 22.812948 0.096629 -5.530288 6.665566 0.996438 5.281065 1.097427 -3.532616 37.430494 -53.198008 -24.713254 -131.836838 -44.635394 158.797718 -10.644944 -1.179459 -38.401388 -11.342985 -0.731643 -3.497887 -5.589058 -26.614340 -3.029139 -18.064223 -53.708606 -18.106872 3.466652 -8.784928 9.856107 5.092765 -23.601750 -3.874413 -11.309456 60.468806 -14.885206 4.935827 32.374249 1.866810 -1.134208 -16.794069 7.726099 -10.911915 -22.104989 -3.192053 31.860215 61.321108 30.116992 -12.647849 13.273627 -6.869763 0.103310 0.311922 0.035858
-250.892466 56.669895 155.104245 177.268140 -52.577414 0.723103 0.733683 27.247044 2.733618 -0.013546 4.742500 0.480494 -0.010656 7.508544 0.762139 0.284610 22.169657 2.332473 -3.058338 22.831280 0.107993 -5.509147 6.718342 1.020265 5.283579 1.113143 -3.514687 37.449761 -53.223266 -24.743095 -131.985547 -44.613360 158.876343 -10.618186 -1.037997 -38.364898 -11.356319 -0.721361 -3.491978 -5.591065 -26.614810 -3.030376 -18.077758 -53.717112 -18.095302 3.466810 -8.781013 9.855639 5.087450 -23.589191 -3.870311 -11.333076 60.456895 -14.902382 4.947156 32.358730 1.864192 -1.132425 -16.777412 7.724773 -10.913175 -22.098527 -3.186364 31.862929 61.322080 30.119100 -12.641891 13.273492 -6.865087 0.098063 0.312227 0.035603
-250.894143 56.671262 155.104500 177.265676 -52.584737 0.727789 0.738796 27.249538 2.732207 -0.015161 4.744552 0.481047 -0.005669 7.504996 0.761956 0.291125 22.168439 2.334592 -3.027093 22.868548 0.131160 -5.532358 6.717193 1.032476 5.274106 1.120384 -3.507452 37.513832 -53.302388 -24.775977 -132.077665 -44.642599 158.891458 -10.619863 -0.921459 -38.344964 -11.355811 -0.712967 -3.488777 -5.600111 -26.615209 -3.028985 -18.088798 -53.726048 -18.092287 3.445780 -8.782899 9.843136 5.081628 -23.571347 -3.869363 -11.394469 60.438522 -14.965229 4.975399 32.324960 1.875253 -1.121151 -16.745644 7.712188 -10.907608 -22.090709 -3.194818 31.870803 61.319455 30.125424 -12.628297 13.273493 -6.857653 0.085336 0.313709 0.036315
-250.895926 56.672186 155.104707 177.269669 -52.587206 0.727261 0.743445 27.247395 2.733620 -0.014159 4.743749 0.481056 -0.003820 7.503755 0.762397 0.297032 22.166806 2.336583 -3.021970 22.885011 0.142842 -5.505433 6.775583 1.054177 5.269657 1.129805 -3.495149 37.535751 -53.330042 -24.793809 -132.183602 -44.626539 158.941121 -10.607158 -0.804038 -38.332744 -11.352250 -0.701491 -3.480337 -5.596705 -26.619934 -3.034270 -18.148734 -53.745836 -18.057389 3.475704 -8.775009 9.834844 5.076324 -23.564906 -3.871701 -11.419360 60.434435 -14.991366 4.985090 32.306168 1.878194 -1.119896 -16.730021 7.709298 -10.908482 -22.088072 -3.198234 31.873077 61.318538 30.125424 -12.624154 13.272861 -6.856506 0.077284 0.315110 0.039154
-250.897362 56.673509 155.104225 177.278638 -52.591197 0.720726 0.747735 27.247911 2.737118 -0.006983 4.737679 0.481335 -0.007587 7.503657 0.764395 0.303477 22.162152 2.341561 -3.031902 22.900630 0.147777 -5.465572 6.836456 1.071625 5.264009 1.144651 -3.483949 37.548081 -53.352871 -24.804462 -132.227195 -44.629797 158.958435 -10.542528 -0.710336 -38.323148 -11.360017 -0.685904 -3.476982 -5.601841 -26.622454 -3.038304 -18.166254 -53.753188 -18.037786 3.481993 -8.770911 9.825573 5.063077 -23.556834 -3.867770 -11.440751 60.430365 -15.018380 4.990742 32.291379 1.874779 -1.115749 -16.718904 7.710963 -10.912049 -22.082938 -3.198023 31.869692 61.317957 30.119861 -12.623298 13.272781 -6.856301 0.078466 0.316214 0.040271
-250.899043 56.674415 155.103657 177.292543 -52.590868 0.712378 0.744321 27.244694 2.735292 -0.007496 4.735324 0.483189 -0.006527 7.503594 0.763713 0.305207 22.160322 2.344313 -3.020006 22.919648 0.157322 -5.464214 6.848080 1.078435 5.266925 1.158089 -3.468668 37.564160 -53.373569 -24.822081 -132.369505 -44.597499 159.045249 -10.534592 -0.560182 -38.327545 -11.357568 -0.678911 -3.473805 -5.594226 -26.624017 -3.042499 -18.175581 -53.758659 -18.036408 3.477164 -8.770045 9.820317 5.046142 -23.551144 -3.869133 -11.453584 60.424854 -15.036102 4.996494 32.268899 1.877971 -1.109553 -16.700171 7.704203 -10.918934 -22.084253 -3.200936 31.872468 61.316391 30.119259 -12.618852 13.276152 -6.850569 0.072242 0.314822 0.037989
-250.899804 56.675052 155.103037 177.288434 -52.586810 0.714463 0.756603 27.232617 2.739866 -0.013621 4.739973 0.484020 -0.001436 7.500106 0.766399 0.313547 22.140703 2.344104 -2.995147 22.961811 0.176326 -5.482213 6.855971 1.086503 5.251737 1.184355 -3.457644 37.569611 -53.393714 -24.816789 -132.545360 -44.574708 159.170266 -10.522922 -0.404429 -38.354772 -11.363601 -0.654044 -3.472653 -5.566564 -26.634281 -3.057551 -18.196824 -53.749256 -18.045523 3.480935 -8.771470 9.813847 5.046650 -23.552684 -3.868850 -11.462837 60.423285 -15.045000 4.993445 32.253086 1.879706 -1.111397 -16.685375 7.700519 -10.913574 -22.090972 -3.197705 31.883094 61.327106 30.123206 -12.604721 13.269024 -6.830963 0.059484 0.315772 0.030323
